<svg xmlns="http://www.w3.org/2000/svg" fill="none" viewBox="0 0 16 16" height="16" width="16">
  <g id="logo-github">
    <path id="Subtract" fill="#ffffff" d="M8 1.3333333333333333c3.6818666666666666 0 6.666666666666666 2.9847666666666663 6.666666666666666 6.666666666666666 0 3.0477333333333334 -2.045733333333333 5.6159333333333326 -4.8385333333333325 6.410799999999999v-2.0077999999999996c0 -0.485 -0.10633333333333334 -0.9643333333333333 -0.3118666666666666 -1.4036666666666666 1.4588666666666665 -0.5214666666666666 2.8522 -1.6298 2.8522 -2.957 0 -0.8442 -0.3114 -1.834493333333333 -1.0084666666666666 -2.42124V4l-1.9641333333333333 0.6588533333333333c-0.4392666666666667 -0.10690666666666666 -0.9085333333333333 -0.16470666666666667 -1.3958666666666666 -0.16471333333333332 -0.4873333333333333 0 -0.9566 0.057819999999999996 -1.3958333333333333 0.16471333333333332L4.639973333333333 4v1.621093333333333c-0.6970333333333333 0.5867266666666666 -1.0077533333333333 1.5771066666666667 -1.0078133333333332 2.42124 0 1.3271333333333333 1.3927533333333333 2.4355333333333333 2.851566666666667 2.957 -0.17572 0.37566666666666665 -0.27908 0.7807333333333333 -0.30533999999999994 1.1934 -0.09236 0.018866666666666664 -0.16794 0.027666666666666666 -0.22981999999999997 0.026666666666666665 -0.13837333333333332 -0.0021999999999999997 -0.24403999999999998 -0.039999999999999994 -0.34635333333333335 -0.10413333333333333 -0.7435466666666667 -0.4666666666666666 -1.02934 -1.3223333333333334 -2.0371066666666664 -1.4362 -0.12717333333333333 -0.014266666666666665 -0.23159999999999997 0.0914 -0.23177333333333333 0.21939999999999998 0 0.12813333333333332 0.10613999999999998 0.2282 0.22981999999999997 0.26166666666666666 0.9614400000000001 0.26 0.9517 2.1510666666666665 2.3652333333333333 2.1731999999999996 0.07984 0.0012666666666666666 0.16067333333333333 -0.0046 0.24283999999999997 -0.012399999999999998v1.0898666666666665C3.378713333333333 13.615733333333333 1.3333333333333333 11.047533333333334 1.3333333333333333 8 1.3333333333333333 4.318099999999999 4.318099999999999 1.3333333333333333 8 1.3333333333333333" stroke-width="0.6667"></path>
  </g>
</svg>